# xmcd CD database file generated by Grip 2.95
# 
# Track frame offsets:
#       150
#       19454
#       43714
#       72069
#       91331
#       108178
#       130905
#       150923
# 
# Disc length: 2309 seconds
# 
# Revision: 3
# Processed by: cddbd v1.4b41PL1 Copyright (c) Steve Scherf et al.
# Submitted via: Grip 2.95
# 
DISCID=5c090308
DTITLE=Joint Chiefs - In Session
DYEAR=1900
DGENRE=
TTITLE0=That's What The Blues is All About
TTITLE1=Cold Sweat
TTITLE2=Me And My Guitar
TTITLE3=Pass The Peas
TTITLE4=Pack Your Thangs
TTITLE5=All Blues
TTITLE6=Pick Up The Pieces
TTITLE7=Ain't That A Bitch
EXTD=Don Caruth, Guitar and Vocals\nBIll BIala, Alto Sax\nJames Zogzas, Drums
EXTD=\nFinley Henderson, Tenor Sax\nKen 'K.C.' Colby, Bass
EXTT0=
EXTT1=
EXTT2=
EXTT3=
EXTT4=
EXTT5=
EXTT6=
EXTT7=
PLAYORDER=
